inDegrees=no
num_controls=7
num_derivatives=13
num_iterations=94
num_multipliers=7
num_parameters=0
num_slacks=7
num_states=26
objective=0.448477
objective_accelerations=0.049424
objective_balance=0.007923
objective_effort=0.037443
objective_height=0.348747
objective_ligament=0.004940
solver_duration=1375.856216
status=Solve_Succeeded
success=true
DataType=double
version=3
OpenSimVersion=4.5
endheader
time	/jointset/ground_pelvis/pelvis_tilt/value	/jointset/ground_pelvis/pelvis_tx/value	/jointset/ground_pelvis/pelvis_ty/value	/jointset/hip_l/hip_flexion_l/value	/jointset/hip_l/hip_adduction_l/value	/jointset/hip_l/hip_rotation_l/value	/jointset/back/lumbar_extension/value	/jointset/patellofemoral_l/patellar_flexion_l/value	/jointset/knee_l/knee_flexion_l/value	/jointset/knee_l/knee_adduction_l/value	/jointset/knee_l/knee_rotation_l/value	/jointset/ankle_l/ankle_angle_l/value	/jointset/subtalar_l/subtalar_angle_l/value	/jointset/ground_pelvis/pelvis_tilt/speed	/jointset/ground_pelvis/pelvis_tx/speed	/jointset/ground_pelvis/pelvis_ty/speed	/jointset/hip_l/hip_flexion_l/speed	/jointset/hip_l/hip_adduction_l/speed	/jointset/hip_l/hip_rotation_l/speed	/jointset/back/lumbar_extension/speed	/jointset/patellofemoral_l/patellar_flexion_l/speed	/jointset/knee_l/knee_flexion_l/speed	/jointset/knee_l/knee_adduction_l/speed	/jointset/knee_l/knee_rotation_l/speed	/jointset/ankle_l/ankle_angle_l/speed	/jointset/subtalar_l/subtalar_angle_l/speed	/forceset/tau_hip_flexion_l	/forceset/tau_hip_adduction_l	/forceset/tau_hip_rotation_l	/forceset/tau_knee_flexion_l	/forceset/tau_ankle_angle_l	/forceset/tau_subtalar_angle_l	/forceset/tau_lumbar_extension	lambda_cid13_p0	lambda_cid13_p1	lambda_cid13_p2	lambda_cid13_p3	lambda_cid13_p4	lambda_cid13_p5	lambda_cid14_p0	/jointset/ground_pelvis/pelvis_tilt/accel	/jointset/ground_pelvis/pelvis_tx/accel	/jointset/ground_pelvis/pelvis_ty/accel	/jointset/hip_l/hip_flexion_l/accel	/jointset/hip_l/hip_adduction_l/accel	/jointset/hip_l/hip_rotation_l/accel	/jointset/back/lumbar_extension/accel	/jointset/patellofemoral_l/patellar_flexion_l/accel	/jointset/knee_l/knee_flexion_l/accel	/jointset/knee_l/knee_adduction_l/accel	/jointset/knee_l/knee_rotation_l/accel	/jointset/ankle_l/ankle_angle_l/accel	/jointset/subtalar_l/subtalar_angle_l/accel	gamma_cid13_p0	gamma_cid13_p1	gamma_cid13_p2	gamma_cid13_p3	gamma_cid13_p4	gamma_cid13_p5	gamma_cid14_p0
1	-0.6734349861199572	-0.140202549330851	0.5931345556053549	1.976981510593137	-0.2978570357629305	0.1293096398666355	-0.4363292070785918	1.182224773445658	1.182224773445615	-0.1745108614341806	0.1745284039941461	0.07168460499244016	-0.03547302897364584	-0.007342284966426254	0.002514407967161434	-0.002221369586253529	0.01116368529660879	0.0009910652905799511	0.003989447577371133	1.871737133358429e-05	0.009911073445103535	0.009911073445108802	-6.793202438685485e-06	-2.409231144453777e-05	0.007048712855555569	0.002394738910769014	-0.4544955352532923	0.008473499500012154	-0.01815433914781319	-0.2430753216008231	0.1520773772869303	0.02371337261178749	0.3625072578180394	1.871291100743831	-10.46868023377472	1.08645848584452	8.170028899198858	-732.5047082899673	-38.31567837774806	-1.164546696164511	2.023059513711913	0.2882119612151778	1.744794750192569	-6.563124397560078	-0.3662407904456219	-1.737319217692776	-0.01453179258093714	-4.704371120918382	-4.704371120918029	-0.04228121683786831	0.01242182485007835	-0.4445594377285109	-0.4245611311701931	8.576292908732488e-10	5.471282997558622e-09	-8.018994205080975e-09	7.260552931712764e-10	5.742015358418786e-10	5.615035472290492e-12	1.864551029723397e-09
1.01	-0.6734080842225363	-0.1401630403669208	0.5931994429426243	1.976766073593704	-0.2978645578596374	0.1292618430564333	-0.436328945690538	1.182088942060547	1.182088942060528	-0.1745109563705374	0.1745281423148539	0.07173309011084029	-0.03546932601520918	0.01271642232394295	0.005390404770076029	0.01519446153374929	-0.05423684456335126	-0.0024933216686943	-0.0135449788422096	2.904396349184708e-05	-0.03706741676153263	-0.03706741676151348	-1.221093517676154e-05	-2.70562107636094e-05	0.002650719608846445	-0.001651453987490172	-0.4541143640089729	0.008474611543868773	-0.01817276864569978	-0.2432140434386861	0.1524090259770872	0.02366592311423837	0.3622525868129999	1.994040568194027	-10.47129971524343	1.088856962927324	8.008892418226337	-732.2749903140621	-38.32621291176932	-1.167609439786464	1.996339674615599	0.2877467585802769	1.739320032596529	-6.526381634932443	-0.339214915109478	-1.76093338826542	0.008137443579859929	-4.693097037395394	-4.693097037393459	0.02032386793035777	-0.006482221152824793	-0.4370575146190968	-0.3942462642904811	-1.942064320205414e-09	-2.577100340394473e-09	1.91282079438362e-08	1.126301187392289e-09	-4.619314850541535e-09	2.314154351966339e-08	-4.323785400902086e-09
1.02	-0.673180782584629	-0.1400946807912113	0.5934383571390318	1.975897058424728	-0.2979068592792254	0.1290388161752	-0.4363287165248613	1.181483623959997	1.181483623960003	-0.174511106300338	0.1745278856518007	0.07173766764747791	-0.03550600456478244	0.03273766313095988	0.008284530323017035	0.03258400224144409	-0.1195519486120506	-0.005964799285614396	-0.03105656662877877	1.227289427646146e-05	-0.08398626964253562	-0.0839862696425015	-1.779189102952781e-05	-2.308906327958802e-05	-0.00173280349694195	-0.005681562691217537	-0.4537331927646531	0.00847572358772428	-0.01819119814358369	-0.2433527652765498	0.1527406746672434	0.02361847361668797	0.3619979158079611	2.111023740344561	-10.47315348256293	1.09141213669492	7.864034942874831	-732.1238708360553	-38.30541853974864	-1.181260900443479	2.015566217041456	0.2918377112204611	1.739536667730966	-6.546039235307931	-0.363658921974793	-1.732751491090471	-0.01995132485567474	-4.692443655791747	-4.692443655791178	-0.0423138614608039	0.01380803421070309	-0.4416654095443642	-0.4213442922638307	-4.966642812308561e-09	-1.05038118978279e-08	4.515655612146684e-08	2.280939079706553e-09	-1.011228849273165e-08	4.515437008048908e-08	-1.023622124764979e-08
1.03	-0.6727534572180877	-0.1399972757006428	0.5938509556751447	1.97437549606071	-0.2979837570902317	0.1286408648010029	-0.4363287377154311	1.180409525752282	1.180409525752234	-0.1745113258095293	0.1745276939021668	0.07169841959662425	-0.03558285805930984	0.0527204043901186	0.01120079137100276	0.04992332784682767	-0.1847279046098487	-0.009405932633701798	-0.04852344346975649	-1.504315488399147e-05	-0.1308122475181253	-0.130812247518144	-2.432179199143936e-05	-1.599779000795305e-05	-0.006120263995371495	-0.009680430576578167	-0.4530228233676498	0.008565620572796695	-0.01822827934095719	-0.243364446790875	0.1530145450238744	0.02364673104629778	0.361547484151723	2.232383052874585	-10.51180370198778	1.103432379868517	7.700341923987112	-731.6415243853722	-38.34280581729526	-1.20573101816644	1.98857589827034	0.2921665343363437	1.72927078183124	-6.498482511059859	-0.3330233573936436	-1.752129453212221	0.006098433143951613	-4.674502931090234	-4.674502931098576	0.02043990920814321	-0.005968398959246368	-0.437803692861032	-0.3878577599441514	-7.993516048095632e-09	-1.84292819064805e-08	7.117348742183945e-08	3.443274849552386e-09	-1.56083178212055e-08	6.715573641760697e-08	-1.614584178231711e-08
